<?xml version="1.0" encoding="utf-8"?>
<!-- Generator: Adobe Illustrator 24.0.3, SVG Export Plug-In . SVG Version: 6.00 Build 0)  -->
<svg version="1.1" id="Layer_1" xmlns="http://www.w3.org/2000/svg" xmlns:xlink="http://www.w3.org/1999/xlink" x="0px" y="0px"
	 viewBox="0 0 500 500" style="enable-background:new 0 0 500 500;" xml:space="preserve">
<style type="text/css">
	.st0{display:none;}
	.st1{display:inline;}
	.st2{fill:#FCD036;}
	.st3{fill:none;stroke:#231F20;stroke-width:10;stroke-linecap:round;stroke-linejoin:round;stroke-miterlimit:10;}
	.st4{fill:none;stroke:#231F20;stroke-width:2;stroke-linecap:round;stroke-linejoin:round;stroke-miterlimit:10;}
	.st5{fill:none;}
	.st6{fill:none;stroke:#231F20;stroke-width:2;stroke-miterlimit:10;}
	.st7{fill:none;stroke:#231F20;stroke-width:2;stroke-linecap:round;stroke-miterlimit:10;}
	.st8{fill:none;stroke:#231F20;stroke-width:10;stroke-miterlimit:10;}
	.st9{fill:none;stroke:#231F20;stroke-width:6;stroke-linecap:round;stroke-linejoin:round;stroke-miterlimit:10;}
	.st10{fill:#FFFDE0;}
	.st11{fill:none;stroke:#231F20;stroke-width:4;stroke-miterlimit:10;}
	.st12{fill:none;stroke:#231F20;stroke-width:4;stroke-linecap:round;stroke-miterlimit:10;}
	.st13{fill:none;stroke:#231F20;stroke-width:12;stroke-linecap:round;stroke-linejoin:round;stroke-miterlimit:10;}
	.st14{fill:#242424;}
	.st15{fill:#AD9D66;}
	.st16{fill:none;stroke:#FCD036;stroke-width:4;stroke-miterlimit:10;}
	.st17{fill:none;stroke:#FCD036;stroke-width:4;stroke-linecap:round;stroke-miterlimit:10;}
	.st18{fill:none;stroke:#FCD036;stroke-width:12;stroke-linecap:round;stroke-linejoin:round;stroke-miterlimit:10;}
	.st19{fill:#FAB22C;}
	.st20{fill:none;stroke:#FFFFFF;stroke-width:3;stroke-miterlimit:10;}
	.st21{fill:none;stroke:#FFFFFF;stroke-width:4;stroke-miterlimit:10;}
	.st22{fill:none;stroke:#FFFFFF;stroke-width:4;stroke-linecap:round;stroke-miterlimit:10;}
	.st23{fill:none;stroke:#FFFFFF;stroke-width:12;stroke-linecap:round;stroke-linejoin:round;stroke-miterlimit:10;}
	.st24{fill:#FFFFFF;}
</style>
<g id="Others" class="st0">
	<g id="Meh" class="st1">
		<g id="Base_copy_3">
			<g>
				<g>
					<g>
						<g>
							<polygon class="st2" points="-887.5,-2297.6 -861.5,-2312.6 -835.5,-2297.6 -835.5,-2267.6 -861.5,-2252.6 -887.5,-2267.6 
															"/>
							<polyline class="st3" points="-848.5,-2170.1 -848.5,-2230.1 -809.5,-2252.6 -809.5,-2312.6 -861.5,-2342.6 -913.5,-2312.6 
								-913.5,-2252.6 -874.5,-2230.1 -874.5,-2170.1 							"/>
						</g>
						<path class="st4" d="M-796.6-2312.6"/>
						<path class="st4" d="M-796.6-2199.5"/>
						<path class="st4" d="M-926.5-2312.6"/>
						<path class="st4" d="M-926.5-2199.5"/>
						<path class="st4" d="M-852-2166.2"/>
						<path class="st4" d="M-871.3-2166.2"/>
					</g>
					<circle class="st4" cx="-861.5" cy="-2282.6" r="5"/>
					<line class="st4" x1="-861.5" y1="-2277.6" x2="-861.5" y2="-2170.1"/>
				</g>
				<g>
					<g>
						<g>
							<polygon class="st2" points="-770.6,-2185.7 -796.5,-2170.7 -822.5,-2185.7 -822.5,-2215.7 -796.5,-2230.7 -770.6,-2215.7 
															"/>
							<polyline class="st3" points="-809.5,-2313.2 -809.5,-2253.2 -848.5,-2230.7 -848.5,-2170.7 -796.5,-2140.7 -744.6,-2170.7 
								-744.6,-2230.7 -783.6,-2253.2 -783.6,-2313.2 							"/>
						</g>
						<path class="st4" d="M-861.5-2170.7"/>
						<path class="st4" d="M-861.5-2283.9"/>
						<path class="st4" d="M-731.6-2170.7"/>
						<path class="st4" d="M-731.6-2283.9"/>
						<path class="st4" d="M-806-2317.1"/>
						<path class="st4" d="M-786.7-2317.1"/>
					</g>
					<circle class="st4" cx="-796.6" cy="-2200.7" r="5"/>
					<line class="st4" x1="-796.6" y1="-2205.7" x2="-796.6" y2="-2313.2"/>
				</g>
				<g>
					<g>
						<g>
							<polygon class="st2" points="-900.5,-2185.1 -926.5,-2170.1 -952.4,-2185.1 -952.4,-2215.1 -926.5,-2230.1 -900.5,-2215.1 
															"/>
							<polyline class="st3" points="-913.5,-2312.6 -913.5,-2252.6 -874.5,-2230.1 -874.5,-2170.1 -926.5,-2140.1 -978.4,-2170.1 
								-978.4,-2230.1 -939.4,-2252.6 -939.4,-2312.6 							"/>
						</g>
						<path class="st4" d="M-991.4-2170.1"/>
						<path class="st4" d="M-991.4-2283.3"/>
						<path class="st4" d="M-861.5-2170.1"/>
						<path class="st4" d="M-861.5-2283.3"/>
						<path class="st4" d="M-935.9-2316.5"/>
						<path class="st4" d="M-916.6-2316.5"/>
					</g>
					<circle class="st4" cx="-926.5" cy="-2200.1" r="5"/>
					<line class="st4" x1="-926.5" y1="-2205.1" x2="-926.5" y2="-2312.6"/>
				</g>
			</g>
			<g>
				<rect x="-971.3" y="-2124.9" class="st5" width="219.5" height="52.5"/>
				<path d="M-931.2-2080.8h-3.7v-18.7h-24.2v18.7h-3.7v-41.4h3.7v19.5h24.2v-19.5h3.7V-2080.8z"/>
				<path d="M-903.8-2086.6l-1.6,3.4c-2.2,2.2-5.3,3.2-8.8,3.2c-5.9,0-10.1-3.1-10.1-8.8c0-7.3,6.9-10.8,18.4-10.8h2v-1.1
					c0-1.4,0-2.6-0.1-3.9c-0.3-3.7-2.5-5.8-7.1-5.8c-4.4,0-7.5,2.3-8,7.3h-3.9c0.4-6.2,5.2-10.3,11.9-10.3c7,0,10.3,3.2,10.8,8.4
					c0.1,1.4,0.1,2.7,0.1,4.2v11.1c0,2.8,0.2,5.1,0.6,8.9h-3.7L-903.8-2086.6z M-903.9-2096.7c-8.9-0.7-16.3,1.5-16.3,7.6
					c0,4,2.5,6.2,7.1,6.2c5.5,0,9.2-4.2,9.2-10.1V-2096.7z"/>
				<path d="M-866.3-2090.7c-1.4,7-6.7,10.7-13.5,10.7c-7.9,0-14.1-5.5-14.1-16.7c0-10.5,6.8-16.7,14.8-16.7
					c7.3,0,12.2,4.5,13.1,11.2h-3.9c-1.1-5.3-4.3-8.3-9.4-8.3c-5.3,0-10.6,4.3-10.6,13.5c0,9.8,4.9,14,10.3,14
					c4.7,0,8.3-2.7,9.4-7.8H-866.3z"/>
				<path d="M-856.1-2091.9v11.2h-3.7v-44.1h3.7v28.8l16.3-16.4h4.9l-15.5,15.2l15.7,16.6h-5.2l-13.2-14.2L-856.1-2091.9z"/>
				<path d="M-793.2-2101.9v21.1h-6.7l-0.5-6.7l-1.9,4.3c-2.3,2.3-5.6,3.2-10.2,3.2c-11.5,0-18.8-8.2-18.8-21.3
					c0-13.6,8.9-21.8,20.3-21.8c11,0,17,5.9,18.1,13.9h-8.5c-1-4.7-4.2-7.7-9.7-7.7c-6.7,0-11.5,5.7-11.5,15.1
					c0,10.3,4.8,15.6,11.3,15.6c5.5,0,9.2-3.5,10-9.3h-8.8l-0.1-6.5H-793.2z"/>
				<path d="M-767.8-2115.7v34.9h-8.3v-34.9h-14v-6.5h36.4v6.5H-767.8z"/>
			</g>
		</g>
		<g id="Base_copy">
			<g>
				<g>
					<g>
						<g>
							<polygon class="st2" points="-881.6,-2588.4 -855.6,-2603.4 -829.6,-2588.4 -829.6,-2558.4 -855.6,-2543.4 -881.6,-2558.4 
															"/>
							<polyline class="st3" points="-842.6,-2460.9 -842.6,-2520.9 -803.7,-2543.4 -803.7,-2603.4 -855.6,-2633.4 -907.6,-2603.4 
								-907.6,-2543.4 -868.6,-2520.9 -868.6,-2460.9 							"/>
						</g>
						<path class="st6" d="M-790.7-2603.4"/>
						<path class="st6" d="M-790.7-2490.2"/>
						<path class="st6" d="M-920.6-2603.4"/>
						<path class="st6" d="M-920.6-2490.2"/>
						<path class="st6" d="M-846.2-2457"/>
						<path class="st6" d="M-865.4-2457"/>
					</g>
					<circle class="st6" cx="-855.6" cy="-2573.4" r="5"/>
					<line class="st7" x1="-855.6" y1="-2568.4" x2="-855.6" y2="-2460.9"/>
				</g>
				<g>
					<g>
						<g>
							<polygon class="st2" points="-764.7,-2474.5 -790.7,-2459.5 -816.6,-2474.5 -816.6,-2504.5 -790.7,-2519.5 -764.7,-2504.5 
															"/>
							<polyline class="st3" points="-803.7,-2602 -803.7,-2542 -842.6,-2519.5 -842.6,-2459.5 -790.7,-2429.5 -738.7,-2459.5 
								-738.7,-2519.5 -777.7,-2542 							"/>
						</g>
						<path class="st6" d="M-855.6-2459.5"/>
						<path class="st6" d="M-855.6-2572.7"/>
						<path class="st6" d="M-725.7-2459.5"/>
						<path class="st6" d="M-725.7-2572.7"/>
						<path class="st6" d="M-800.1-2605.9"/>
						<path class="st6" d="M-780.8-2605.9"/>
					</g>
					<circle class="st6" cx="-790.7" cy="-2489.5" r="5"/>
					<line class="st7" x1="-790.7" y1="-2494.5" x2="-790.7" y2="-2602"/>
				</g>
				<g>
					<g>
						<g>
							<polygon class="st2" points="-894.6,-2475.9 -920.6,-2460.9 -946.5,-2475.9 -946.5,-2505.9 -920.6,-2520.9 -894.6,-2505.9 
															"/>
							<polyline class="st3" points="-933.6,-2543.4 -972.5,-2520.9 -972.5,-2460.9 -920.6,-2430.9 -868.6,-2460.9 -868.6,-2520.9 
															"/>
						</g>
						<path class="st6" d="M-985.5-2460.9"/>
						<path class="st6" d="M-985.5-2574.1"/>
						<path class="st6" d="M-855.6-2460.9"/>
						<path class="st6" d="M-855.6-2574.1"/>
						<path class="st6" d="M-930-2607.3"/>
						<path class="st6" d="M-910.8-2607.3"/>
					</g>
					<circle class="st6" cx="-920.6" cy="-2490.9" r="5"/>
					<line class="st7" x1="-920.6" y1="-2495.9" x2="-920.6" y2="-2603.4"/>
				</g>
			</g>
			<g>
				<rect x="-965.4" y="-2415.7" class="st5" width="219.5" height="52.5"/>
				<path d="M-925.3-2371.6h-3.7v-18.7h-24.2v18.7h-3.7v-41.4h3.7v19.5h24.2v-19.5h3.7V-2371.6z"/>
				<path d="M-897.9-2377.3l-1.6,3.4c-2.2,2.2-5.3,3.2-8.8,3.2c-5.9,0-10.1-3.1-10.1-8.8c0-7.3,6.9-10.8,18.4-10.8h2v-1.1
					c0-1.4,0-2.6-0.1-3.9c-0.3-3.7-2.5-5.8-7.1-5.8c-4.4,0-7.5,2.3-8,7.3h-3.9c0.4-6.2,5.2-10.3,11.9-10.3c7,0,10.3,3.2,10.8,8.4
					c0.1,1.4,0.1,2.7,0.1,4.2v11.1c0,2.8,0.2,5.1,0.6,8.9h-3.7L-897.9-2377.3z M-898-2387.5c-8.9-0.7-16.3,1.5-16.3,7.6
					c0,4,2.5,6.2,7.1,6.2c5.5,0,9.2-4.2,9.2-10.1L-898-2387.5L-898-2387.5z"/>
				<path d="M-860.4-2381.5c-1.4,7-6.7,10.7-13.5,10.7c-7.9,0-14.1-5.5-14.1-16.7c0-10.5,6.8-16.7,14.8-16.7
					c7.3,0,12.2,4.5,13.1,11.2h-3.9c-1.1-5.3-4.3-8.3-9.4-8.3c-5.3,0-10.6,4.3-10.6,13.5c0,9.8,4.9,14,10.3,14
					c4.7,0,8.3-2.7,9.4-7.8L-860.4-2381.5L-860.4-2381.5z"/>
				<path d="M-850.2-2382.7v11.2h-3.7v-44.1h3.7v28.8l16.3-16.4h4.9l-15.5,15.2l15.7,16.6h-5.2l-13.2-14.2L-850.2-2382.7z"/>
				<path d="M-787.3-2392.7v21.1h-6.7l-0.5-6.7l-1.9,4.3c-2.3,2.3-5.6,3.2-10.2,3.2c-11.5,0-18.8-8.2-18.8-21.3
					c0-13.6,8.9-21.8,20.3-21.8c11,0,17,5.9,18.1,13.9h-8.5c-1-4.7-4.2-7.7-9.7-7.7c-6.7,0-11.5,5.7-11.5,15.1
					c0,10.3,4.8,15.6,11.3,15.6c5.5,0,9.2-3.5,10-9.3h-8.8l-0.1-6.5H-787.3z"/>
				<path d="M-762-2406.5v34.9h-8.3v-34.9h-14v-6.5h36.4v6.5H-762z"/>
			</g>
		</g>
		<g id="Base_copy_2">
			<g>
				<g>
					<g>
						<g>
							<polygon class="st2" points="-1178.2,-2298.5 -1152.3,-2313.5 -1126.3,-2298.5 -1126.3,-2268.5 -1152.3,-2253.5 
								-1178.2,-2268.5 							"/>
							<polyline class="st8" points="-1139.3,-2171 -1139.3,-2231 -1100.3,-2253.5 -1100.3,-2313.5 -1152.3,-2343.5 
								-1204.2,-2313.5 -1204.2,-2253.5 -1165.3,-2231 -1165.3,-2171 							"/>
						</g>
						<path class="st6" d="M-1087.3-2313.5"/>
						<path class="st6" d="M-1087.3-2200.4"/>
						<path class="st6" d="M-1217.2-2313.5"/>
						<path class="st6" d="M-1217.2-2200.4"/>
						<path class="st6" d="M-1142.8-2167.1"/>
						<path class="st6" d="M-1162.1-2167.1"/>
					</g>
				</g>
				<g>
					<g>
						<g>
							<polygon class="st2" points="-1061.3,-2186.6 -1087.3,-2171.6 -1113.3,-2186.6 -1113.3,-2216.6 -1087.3,-2231.6 
								-1061.3,-2216.6 							"/>
							<polyline class="st8" points="-1100.3,-2314.1 -1100.3,-2254.1 -1139.3,-2231.6 -1139.3,-2171.6 -1087.3,-2141.6 
								-1035.4,-2171.6 -1035.4,-2231.6 -1074.3,-2254.1 -1074.3,-2314.1 							"/>
						</g>
						<path class="st6" d="M-1152.3-2171.6"/>
						<path class="st6" d="M-1152.3-2284.8"/>
						<path class="st6" d="M-1022.4-2171.6"/>
						<path class="st6" d="M-1022.4-2284.8"/>
						<path class="st6" d="M-1096.8-2318"/>
						<path class="st6" d="M-1077.5-2318"/>
					</g>
				</g>
				<g>
					<g>
						<g>
							<polygon class="st2" points="-1191.2,-2186 -1217.2,-2171 -1243.2,-2186 -1243.2,-2216 -1217.2,-2231 -1191.2,-2216 							
								"/>
							<polyline class="st8" points="-1204.2,-2313.5 -1204.2,-2253.5 -1165.3,-2231 -1165.3,-2171 -1217.2,-2141 -1269.2,-2171 
								-1269.2,-2231 -1230.2,-2253.5 -1230.2,-2313.5 							"/>
						</g>
						<path class="st6" d="M-1282.2-2171"/>
						<path class="st6" d="M-1282.2-2284.2"/>
						<path class="st6" d="M-1152.3-2171"/>
						<path class="st6" d="M-1152.3-2284.2"/>
						<path class="st6" d="M-1226.7-2317.4"/>
						<path class="st6" d="M-1207.4-2317.4"/>
					</g>
				</g>
			</g>
			<g>
				<rect x="-1262" y="-2125.8" class="st5" width="219.5" height="52.5"/>
				<path d="M-1222-2081.7h-3.7v-18.7h-24.2v18.7h-3.7v-41.4h3.7v19.5h24.2v-19.5h3.7V-2081.7z"/>
				<path d="M-1194.6-2087.4l-1.6,3.4c-2.2,2.2-5.3,3.2-8.8,3.2c-5.9,0-10.1-3.1-10.1-8.8c0-7.3,6.9-10.8,18.4-10.8h2v-1.1
					c0-1.4,0-2.6-0.1-3.9c-0.3-3.7-2.5-5.8-7.1-5.8c-4.4,0-7.5,2.3-8,7.3h-3.9c0.4-6.2,5.2-10.3,11.9-10.3c7,0,10.3,3.2,10.8,8.4
					c0.1,1.4,0.1,2.7,0.1,4.2v11.1c0,2.8,0.2,5.1,0.6,8.9h-3.7L-1194.6-2087.4z M-1194.7-2097.6c-8.9-0.7-16.3,1.5-16.3,7.6
					c0,4,2.5,6.2,7.1,6.2c5.5,0,9.2-4.2,9.2-10.1V-2097.6z"/>
				<path d="M-1157.1-2091.6c-1.4,7-6.7,10.7-13.5,10.7c-7.9,0-14.1-5.5-14.1-16.7c0-10.5,6.8-16.7,14.8-16.7
					c7.3,0,12.2,4.5,13.1,11.2h-3.9c-1.1-5.3-4.3-8.3-9.4-8.3c-5.3,0-10.6,4.3-10.6,13.5c0,9.8,4.9,14,10.3,14
					c4.7,0,8.3-2.7,9.4-7.8H-1157.1z"/>
				<path d="M-1146.9-2092.8v11.2h-3.7v-44.1h3.7v28.8l16.3-16.4h4.9l-15.5,15.2l15.7,16.6h-5.2l-13.2-14.2L-1146.9-2092.8z"/>
				<path d="M-1084-2102.8v21.1h-6.7l-0.5-6.7l-1.9,4.3c-2.3,2.3-5.6,3.2-10.2,3.2c-11.5,0-18.8-8.2-18.8-21.3
					c0-13.6,8.9-21.8,20.3-21.8c11,0,17,5.9,18.1,13.9h-8.5c-1-4.7-4.2-7.7-9.7-7.7c-6.7,0-11.5,5.7-11.5,15.1
					c0,10.3,4.8,15.6,11.3,15.6c5.5,0,9.2-3.5,10-9.3h-8.8l-0.1-6.5H-1084z"/>
				<path d="M-1058.6-2116.6v34.9h-8.3v-34.9h-14v-6.5h36.4v6.5H-1058.6z"/>
			</g>
		</g>
	</g>
	<g id="Base" class="st1">
		<g>
			<g>
				<g>
					<g>
						<polygon class="st2" points="-577,-2588.4 -551,-2603.4 -525.1,-2588.4 -525.1,-2558.4 -551,-2543.4 -577,-2558.4 						"/>
						<polyline class="st8" points="-538,-2460.9 -538,-2520.9 -499.1,-2543.4 -499.1,-2603.4 -551,-2633.4 -603,-2603.4 
							-603,-2543.4 -564,-2520.9 -564,-2460.9 						"/>
					</g>
					<path class="st6" d="M-486.1-2603.4"/>
					<path class="st6" d="M-486.1-2490.2"/>
					<path class="st6" d="M-616-2603.4"/>
					<path class="st6" d="M-616-2490.2"/>
					<path class="st6" d="M-541.6-2457"/>
					<path class="st6" d="M-560.9-2457"/>
				</g>
				<circle class="st6" cx="-551" cy="-2573.4" r="5"/>
				<line class="st7" x1="-551" y1="-2568.4" x2="-551" y2="-2460.9"/>
			</g>
			<g>
				<g>
					<g>
						<polygon class="st2" points="-460.1,-2476.5 -486.1,-2461.5 -512.1,-2476.5 -512.1,-2506.5 -486.1,-2521.5 -460.1,-2506.5 
													"/>
						<polyline class="st8" points="-499.1,-2604 -499.1,-2544 -538,-2521.5 -538,-2461.5 -486.1,-2431.5 -434.1,-2461.5 
							-434.1,-2521.5 -473.1,-2544 						"/>
					</g>
					<path class="st6" d="M-551-2461.5"/>
					<path class="st6" d="M-551-2574.7"/>
					<path class="st6" d="M-421.1-2461.5"/>
					<path class="st6" d="M-421.1-2574.7"/>
					<path class="st6" d="M-495.5-2607.9"/>
					<path class="st6" d="M-476.3-2607.9"/>
				</g>
				<circle class="st6" cx="-486.1" cy="-2491.5" r="5"/>
				<line class="st7" x1="-486.1" y1="-2496.5" x2="-486.1" y2="-2604"/>
			</g>
			<g>
				<g>
					<g>
						<polygon class="st2" points="-590,-2475.9 -616,-2460.9 -642,-2475.9 -642,-2505.9 -616,-2520.9 -590,-2505.9 						"/>
						<polyline class="st8" points="-629,-2543.4 -667.9,-2520.9 -667.9,-2460.9 -616,-2430.9 -564,-2460.9 -564,-2520.9 
							-603,-2543.4 -603,-2603.4 						"/>
					</g>
					<path class="st6" d="M-680.9-2460.9"/>
					<path class="st6" d="M-680.9-2574.1"/>
					<path class="st6" d="M-551-2460.9"/>
					<path class="st6" d="M-551-2574.1"/>
					<path class="st6" d="M-625.4-2607.3"/>
					<path class="st6" d="M-606.2-2607.3"/>
				</g>
				<circle class="st6" cx="-616" cy="-2490.9" r="5"/>
				<line class="st7" x1="-616" y1="-2495.9" x2="-616" y2="-2603.4"/>
			</g>
		</g>
		<g>
			<rect x="-660.8" y="-2415.7" class="st5" width="219.5" height="52.5"/>
			<path d="M-620.8-2371.6h-3.7v-18.7h-24.2v18.7h-3.7v-41.4h3.7v19.5h24.2v-19.5h3.7V-2371.6z"/>
			<path d="M-593.3-2377.3l-1.6,3.4c-2.2,2.2-5.3,3.2-8.8,3.2c-5.9,0-10.1-3.1-10.1-8.8c0-7.3,6.9-10.8,18.4-10.8h2v-1.1
				c0-1.4,0-2.6-0.1-3.9c-0.3-3.7-2.5-5.8-7.1-5.8c-4.4,0-7.5,2.3-8,7.3h-3.9c0.4-6.2,5.2-10.3,11.9-10.3c7,0,10.3,3.2,10.8,8.4
				c0.1,1.4,0.1,2.7,0.1,4.2v11.1c0,2.8,0.2,5.1,0.6,8.9h-3.7L-593.3-2377.3z M-593.5-2387.5c-8.9-0.7-16.3,1.5-16.3,7.6
				c0,4,2.5,6.2,7.1,6.2c5.5,0,9.2-4.2,9.2-10.1L-593.5-2387.5L-593.5-2387.5z"/>
			<path d="M-555.8-2381.5c-1.4,7-6.7,10.7-13.5,10.7c-7.9,0-14.1-5.5-14.1-16.7c0-10.5,6.8-16.7,14.8-16.7
				c7.3,0,12.2,4.5,13.1,11.2h-3.9c-1.1-5.3-4.3-8.3-9.4-8.3c-5.3,0-10.6,4.3-10.6,13.5c0,9.8,4.9,14,10.3,14c4.7,0,8.3-2.7,9.4-7.8
				L-555.8-2381.5L-555.8-2381.5z"/>
			<path d="M-545.6-2382.7v11.2h-3.7v-44.1h3.7v28.8l16.3-16.4h4.9l-15.5,15.2l15.7,16.6h-5.2l-13.2-14.2L-545.6-2382.7z"/>
			<path d="M-482.8-2392.7v21.1h-6.7l-0.5-6.7l-1.9,4.3c-2.3,2.3-5.6,3.2-10.2,3.2c-11.5,0-18.8-8.2-18.8-21.3
				c0-13.6,8.9-21.8,20.3-21.8c11,0,17,5.9,18.1,13.9h-8.5c-1-4.7-4.2-7.7-9.7-7.7c-6.7,0-11.5,5.7-11.5,15.1
				c0,10.3,4.8,15.6,11.3,15.6c5.5,0,9.2-3.5,10-9.3h-8.8l-0.1-6.5H-482.8z"/>
			<path d="M-457.4-2406.5v34.9h-8.3v-34.9h-14v-6.5h36.4v6.5H-457.4z"/>
		</g>
	</g>
	<g id="Base_copy_5" class="st1">
		<g>
			<g>
				<g>
					<g>
						<polygon class="st2" points="-605.7,-2588.4 -579.7,-2603.4 -553.8,-2588.4 -553.8,-2558.4 -579.7,-2543.4 -605.7,-2558.4 
													"/>
						<polyline class="st8" points="-566.8,-2460.9 -566.8,-2520.9 -527.8,-2543.4 -527.8,-2603.4 -579.7,-2633.4 -631.7,-2603.4 
							-631.7,-2543.4 -592.7,-2520.9 -592.7,-2460.9 						"/>
					</g>
					<path class="st6" d="M-514.8-2603.4"/>
					<path class="st6" d="M-514.8-2490.2"/>
					<path class="st6" d="M-644.7-2603.4"/>
					<path class="st6" d="M-644.7-2490.2"/>
					<path class="st6" d="M-570.3-2457"/>
					<path class="st6" d="M-589.6-2457"/>
				</g>
				<circle class="st6" cx="-579.7" cy="-2573.4" r="5"/>
				<line class="st7" x1="-579.7" y1="-2568.4" x2="-579.7" y2="-2460.9"/>
			</g>
			<g>
				<g>
					<g>
						<polygon class="st2" points="-488.8,-2476.5 -514.8,-2461.5 -540.8,-2476.5 -540.8,-2506.5 -514.8,-2521.5 -488.8,-2506.5 
													"/>
						<polyline class="st8" points="-527.8,-2604 -527.8,-2544 -566.8,-2521.5 -566.8,-2461.5 -514.8,-2431.5 -462.8,-2461.5 
							-462.8,-2521.5 -501.8,-2544 -501.8,-2603.4 						"/>
					</g>
					<path class="st6" d="M-579.7-2461.5"/>
					<path class="st6" d="M-579.7-2574.7"/>
					<path class="st6" d="M-449.8-2461.5"/>
					<path class="st6" d="M-449.8-2574.7"/>
					<path class="st6" d="M-524.3-2607.9"/>
					<path class="st6" d="M-505-2607.9"/>
				</g>
				
					<ellipse transform="matrix(0.1602 -0.9871 0.9871 0.1602 2026.9832 -2600.5396)" class="st6" cx="-514.8" cy="-2491.5" rx="5" ry="5"/>
				<line class="st7" x1="-514.8" y1="-2496.5" x2="-514.8" y2="-2604"/>
			</g>
		</g>
		<g>
			<rect x="-657" y="-2415.7" class="st5" width="219.5" height="52.5"/>
			<path d="M-617-2371.6h-3.7v-18.7h-24.2v18.7h-3.7v-41.4h3.7v19.5h24.2v-19.5h3.7V-2371.6z"/>
			<path d="M-589.6-2377.3l-1.6,3.4c-2.2,2.2-5.3,3.2-8.8,3.2c-5.9,0-10.1-3.1-10.1-8.8c0-7.3,6.9-10.8,18.4-10.8h2v-1.1
				c0-1.4,0-2.6-0.1-3.9c-0.3-3.7-2.5-5.8-7.1-5.8c-4.4,0-7.5,2.3-8,7.3h-3.9c0.4-6.2,5.2-10.3,11.9-10.3c7,0,10.3,3.2,10.8,8.4
				c0.1,1.4,0.1,2.7,0.1,4.2v11.1c0,2.8,0.2,5.1,0.6,8.9h-3.7L-589.6-2377.3z M-589.7-2387.5c-8.9-0.7-16.3,1.5-16.3,7.6
				c0,4,2.5,6.2,7.1,6.2c5.5,0,9.2-4.2,9.2-10.1L-589.7-2387.5L-589.7-2387.5z"/>
			<path d="M-552.1-2381.5c-1.4,7-6.7,10.7-13.5,10.7c-7.9,0-14.1-5.5-14.1-16.7c0-10.5,6.8-16.7,14.8-16.7
				c7.3,0,12.2,4.5,13.1,11.2h-3.9c-1.1-5.3-4.3-8.3-9.4-8.3c-5.3,0-10.6,4.3-10.6,13.5c0,9.8,4.9,14,10.3,14c4.7,0,8.3-2.7,9.4-7.8
				L-552.1-2381.5L-552.1-2381.5z"/>
			<path d="M-541.9-2382.7v11.2h-3.7v-44.1h3.7v28.8l16.3-16.4h4.9l-15.5,15.2l15.7,16.6h-5.2l-13.2-14.2L-541.9-2382.7z"/>
			<path d="M-479-2392.7v21.1h-6.7l-0.5-6.7l-1.9,4.3c-2.3,2.3-5.6,3.2-10.2,3.2c-11.5,0-18.8-8.2-18.8-21.3
				c0-13.6,8.9-21.8,20.3-21.8c11,0,17,5.9,18.1,13.9h-8.5c-1-4.7-4.2-7.7-9.7-7.7c-6.7,0-11.5,5.7-11.5,15.1
				c0,10.3,4.8,15.6,11.3,15.6c5.5,0,9.2-3.5,10-9.3h-8.8l-0.1-6.5H-479z"/>
			<path d="M-453.6-2406.5v34.9h-8.3v-34.9h-14v-6.5h36.4v6.5H-453.6z"/>
		</g>
	</g>
	<g id="Base_copy_6" class="st1">
		<g>
			<g>
				<g>
					<g>
						<polygon class="st2" points="-655,-2162.2 -655,-2192.2 -629,-2207.2 -603,-2192.2 -603,-2162.2 -629,-2147.2 						"/>
						<polyline class="st8" points="-538,-2109.7 -590,-2139.7 -629,-2117.2 -680.9,-2147.2 -680.9,-2207.2 -629,-2237.2 
							-577,-2207.2 -577,-2162.2 -525.1,-2132.2 						"/>
					</g>
					<path class="st6" d="M-622.5-2248.4"/>
					<path class="st6" d="M-524.5-2191.8"/>
					<path class="st6" d="M-687.4-2135.9"/>
					<path class="st6" d="M-589.4-2079.3"/>
					<path class="st6" d="M-523.4-2127.2"/>
					<path class="st6" d="M-533.1-2110.5"/>
				</g>
			</g>
		</g>
		<g>
			<rect x="-589.4" y="-2216.9" class="st5" width="551.8" height="79.5"/>
			<path d="M-439-2137.5h-6.7v-33.7h-43.6v33.7h-6.7v-74.5h6.7v35.1h43.6v-35.1h6.7V-2137.5z"/>
			<path d="M-389.7-2147.9l-2.9,6c-4,4-9.6,5.8-15.9,5.8c-10.6,0-18.1-5.5-18.1-15.9c0-13.1,12.4-19.4,33-19.4h3.7v-2.1
				c0-2.6,0-4.8-0.2-7c-0.5-6.6-4.5-10.4-12.7-10.4c-7.9,0-13.5,4.2-14.4,13.1h-7c0.8-11.2,9.3-18.5,21.4-18.5
				c12.6,0,18.6,5.7,19.4,15.1c0.2,2.5,0.2,4.9,0.2,7.6v20c0,5.1,0.3,9.2,1.1,16h-6.7L-389.7-2147.9z M-389.9-2166.2
				c-16.1-1.2-29.4,2.7-29.4,13.7c0,7.2,4.5,11.1,12.9,11.1c9.9,0,16.5-7.6,16.5-18.3L-389.9-2166.2L-389.9-2166.2z"/>
			<path d="M-322.2-2155.4c-2.6,12.6-12,19.3-24.3,19.3c-14.3,0-25.4-9.8-25.4-30c0-18.9,12.2-30.1,26.6-30.1
				c13.2,0,21.9,8.1,23.7,20.2h-7c-1.9-9.6-7.7-14.9-16.8-14.9c-9.6,0-19,7.8-19,24.3c0,17.6,8.9,25.3,18.5,25.3
				c8.4,0,14.9-4.9,17-14H-322.2z"/>
			<path d="M-303.8-2157.6v20.1h-6.7v-79.4h6.7v51.8l29.3-29.6h8.7l-28,27.3l28.2,29.8h-9.3l-23.8-25.6L-303.8-2157.6z"/>
			<path d="M-190.6-2175.5v38h-12.1l-0.9-12l-3.3,7.8c-4.2,4.1-10.2,5.7-18.4,5.7c-20.7,0-33.8-14.7-33.8-38.3
				c0-24.4,16-39.2,36.6-39.2c19.8,0,30.6,10.7,32.5,24.9h-15.2c-1.8-8.5-7.6-13.8-17.5-13.8c-12,0-20.6,10.3-20.6,27.2
				c0,18.6,8.6,28.1,20.3,28.1c9.8,0,16.6-6.3,18-16.7h-15.9l-0.1-11.7L-190.6-2175.5L-190.6-2175.5z"/>
			<path d="M-145-2200.4v62.9h-14.9v-62.9h-25.3v-11.7h65.4v11.7H-145z"/>
		</g>
		<circle class="st6" cx="-629" cy="-2177.2" r="5"/>
		<polyline class="st6" points="-624.6,-2174.7 -527.8,-2118.7 -147.9,-2118.7 		"/>
	</g>
</g>
<g id="Final_Base" class="st0">
	<g class="st1">
		<rect x="-956.4" y="-2321.8" class="st5" width="219.5" height="52.5"/>
		<path d="M-916.4-2277.7h-3.7v-18.7h-24.2v18.7h-3.7v-41.4h3.7v19.5h24.2v-19.5h3.7V-2277.7z"/>
		<path d="M-889-2283.5l-1.6,3.4c-2.2,2.2-5.3,3.2-8.8,3.2c-5.9,0-10.1-3.1-10.1-8.8c0-7.3,6.9-10.8,18.4-10.8h2v-1.1
			c0-1.4,0-2.6-0.1-3.9c-0.3-3.7-2.5-5.8-7.1-5.8c-4.4,0-7.5,2.3-8,7.3h-3.9c0.4-6.2,5.2-10.3,11.9-10.3c7,0,10.3,3.2,10.8,8.4
			c0.1,1.4,0.1,2.7,0.1,4.2v11.1c0,2.8,0.2,5.1,0.6,8.9h-3.7L-889-2283.5z M-889.1-2293.6c-8.9-0.7-16.3,1.5-16.3,7.6
			c0,4,2.5,6.2,7.1,6.2c5.5,0,9.2-4.2,9.2-10.1L-889.1-2293.6L-889.1-2293.6z"/>
		<path d="M-851.5-2287.6c-1.4,7-6.7,10.7-13.5,10.7c-7.9,0-14.1-5.5-14.1-16.7c0-10.5,6.8-16.7,14.8-16.7c7.3,0,12.2,4.5,13.1,11.2
			h-3.9c-1.1-5.3-4.3-8.3-9.4-8.3c-5.3,0-10.6,4.3-10.6,13.5c0,9.8,4.9,14,10.3,14c4.7,0,8.3-2.7,9.4-7.8H-851.5z"/>
		<path d="M-841.3-2288.9v11.2h-3.7v-44.1h3.7v28.8l16.3-16.4h4.9l-15.5,15.2l15.7,16.6h-5.2l-13.2-14.2L-841.3-2288.9z"/>
		<path d="M-778.4-2298.8v21.1h-6.7l-0.5-6.7l-1.9,4.3c-2.3,2.3-5.6,3.2-10.2,3.2c-11.5,0-18.8-8.2-18.8-21.3
			c0-13.6,8.9-21.8,20.3-21.8c11,0,17,5.9,18.1,13.9h-8.5c-1-4.7-4.2-7.7-9.7-7.7c-6.7,0-11.5,5.7-11.5,15.1
			c0,10.3,4.8,15.6,11.3,15.6c5.5,0,9.2-3.5,10-9.3h-8.8l-0.1-6.5H-778.4z"/>
		<path d="M-753-2312.6v34.9h-8.3v-34.9h-14v-6.5h36.4v6.5H-753z"/>
	</g>
	<g class="st1">
		<polygon class="st2" points="-911.6,-2502.3 -885.6,-2517.3 -859.6,-2502.3 -859.6,-2472.3 -885.6,-2457.3 -911.6,-2472.3 		"/>
		<polygon class="st2" points="-846.7,-2417.7 -820.7,-2432.7 -794.7,-2417.7 -794.7,-2387.7 -820.7,-2372.7 -846.7,-2387.7 		"/>
	</g>
	<g class="st1">
		<circle class="st6" cx="-885.6" cy="-2487.3" r="5"/>
		<line class="st7" x1="-885.6" y1="-2482.3" x2="-885.6" y2="-2372.7"/>
		<circle class="st6" cx="-820.7" cy="-2402.7" r="5"/>
		<line class="st7" x1="-820.7" y1="-2517.3" x2="-820.7" y2="-2407.7"/>
	</g>
	<g class="st1">
		<polyline class="st9" points="-937.6,-2457.3 -937.6,-2517.3 -885.6,-2547.3 -833.7,-2517.3 -833.7,-2457.3 		"/>
		<line class="st9" x1="-937.6" y1="-2457.3" x2="-898.6" y2="-2434.8"/>
		<line class="st9" x1="-833.7" y1="-2457.3" x2="-872.6" y2="-2434.8"/>
		<polyline class="st9" points="-768.7,-2434.8 -768.7,-2374.8 -820.7,-2344.8 -872.6,-2374.8 -872.6,-2434.8 		"/>
		<line class="st9" x1="-807.7" y1="-2457.3" x2="-768.7" y2="-2434.8"/>
	</g>
</g>
<g id="Light" class="st0">
	<g id="Light_BG" class="st1">
		<rect x="-745.7" y="-2666.1" class="st10" width="2000" height="1879.6"/>
	</g>
	<g id="Logos_1_" class="st1">
		<g id="Side_Stacked">
			<g>
				<g>
					<polygon class="st2" points="-601.2,-2514.7 -549.9,-2544.4 -498.6,-2514.7 -498.6,-2455.5 -549.9,-2425.8 -601.2,-2455.5 
											"/>
					<polygon class="st2" points="-472.9,-2347.5 -421.6,-2377.1 -370.3,-2347.5 -370.3,-2288.2 -421.6,-2258.6 -472.9,-2288.2 
											"/>
				</g>
				<g>
					<circle class="st11" cx="-549.9" cy="-2485.1" r="9.9"/>
					<line class="st12" x1="-549.9" y1="-2475.2" x2="-549.9" y2="-2258.6"/>
					<circle class="st11" cx="-421.6" cy="-2317.9" r="9.9"/>
					<line class="st12" x1="-421.6" y1="-2544.4" x2="-421.6" y2="-2327.7"/>
				</g>
				<g>
					<polyline class="st13" points="-652.6,-2423.7 -652.6,-2542.2 -549.9,-2601.5 -447.3,-2542.2 -447.3,-2423.7 					"/>
					<line class="st13" x1="-652.6" y1="-2423.7" x2="-575.6" y2="-2379.3"/>
					<line class="st13" x1="-447.3" y1="-2423.7" x2="-524.3" y2="-2379.3"/>
					<polyline class="st13" points="-319,-2379.3 -319,-2260.7 -421.6,-2201.5 -524.3,-2260.7 -524.3,-2379.3 					"/>
					<line class="st13" x1="-396" y1="-2423.7" x2="-319" y2="-2379.3"/>
				</g>
				<g>
					<g>
						<path d="M-223.1-2416.4h-12.4v-62.5h-80.9v62.5h-12.4v-138.2h12.4v65.1h80.9v-65.1h12.4L-223.1-2416.4L-223.1-2416.4z"/>
						<path d="M-131.6-2435.6l-5.4,11.2c-7.4,7.4-17.8,10.8-29.4,10.8c-19.6,0-33.6-10.2-33.6-29.4c0-24.2,23-36,61.3-36h6.8v-3.8
							c0-4.8,0-8.8-0.4-13c-1-12.2-8.4-19.2-23.6-19.2c-14.6,0-25,7.8-26.6,24.2h-13c1.4-20.8,17.2-34.2,39.7-34.2
							c23.4,0,34.4,10.6,36.1,28c0.4,4.6,0.4,9,0.4,14v37c0,9.4,0.6,17,2,29.6H-130L-131.6-2435.6z M-132-2469.5
							c-29.8-2.2-54.5,5-54.5,25.4c0,13.4,8.4,20.6,23.8,20.6c18.4,0,30.6-14,30.6-33.8V-2469.5z"/>
						<path d="M-6.4-2449.4c-4.8,23.4-22.2,35.8-45.1,35.8c-26.4,0-47.1-18.2-47.1-55.7c0-35,22.6-55.9,49.3-55.9
							c24.4,0,40.7,15,43.9,37.4h-13c-3.6-17.8-14.2-27.6-31.2-27.6c-17.8,0-35.2,14.4-35.2,45.1c0,32.6,16.4,46.9,34.2,46.9
							c15.6,0,27.6-9,31.4-26H-6.4z"/>
						<path d="M27.6-2453.6v37.3H15.2v-147.2h12.4v96.1l54.3-54.9h16.2l-51.9,50.7l52.3,55.3H81.3l-44.1-47.5L27.6-2453.6z"/>
					</g>
					<g>
						<path d="M-110.5-2317.3v75h-25.9l-2.5-22.8l-6.5,15.5c-8.1,7.5-18.8,10.2-34.5,10.2c-39.3,0-65.4-27.2-65.4-74.2
							c0-48.5,32.4-75.8,71.9-75.8c39.5,0,61.4,21.3,64.3,49.5h-33c-3.3-16.3-14.4-25.3-31.8-25.3c-20.9,0-37,17.8-37,49.7
							c0,36.1,16.3,51.8,36.8,51.8c16.9,0,28.6-9.8,32.4-28.2h-29.5v-25.5L-110.5-2317.3L-110.5-2317.3z"/>
						<path d="M-20-2361v118.7h-32.6V-2361h-48.1v-25.5H28v25.5H-20z"/>
					</g>
				</g>
			</g>
		</g>
		<g id="Centered">
			<g>
				<g>
					<polygon class="st2" points="607,-2479.3 658.3,-2509 709.6,-2479.3 709.6,-2420.1 658.3,-2390.4 607,-2420.1 					"/>
					<polygon class="st2" points="735.3,-2312.1 786.6,-2341.7 838,-2312.1 838,-2252.8 786.6,-2223.2 735.3,-2252.8 					"/>
				</g>
				<g>
					<circle class="st11" cx="658.3" cy="-2449.7" r="9.9"/>
					<line class="st12" x1="658.3" y1="-2439.8" x2="658.3" y2="-2223.2"/>
					<circle class="st11" cx="786.6" cy="-2282.5" r="9.9"/>
					<line class="st12" x1="786.6" y1="-2509" x2="786.6" y2="-2292.3"/>
				</g>
				<g>
					<polyline class="st13" points="555.7,-2388.3 555.7,-2506.8 658.3,-2566.1 761,-2506.8 761,-2388.3 					"/>
					<line class="st13" x1="555.7" y1="-2388.3" x2="632.7" y2="-2343.9"/>
					<line class="st13" x1="761" y1="-2388.3" x2="684" y2="-2343.9"/>
					<polyline class="st13" points="889.3,-2343.9 889.3,-2225.3 786.6,-2166.1 684,-2225.3 684,-2343.9 					"/>
					<line class="st13" x1="812.3" y1="-2388.3" x2="889.3" y2="-2343.9"/>
				</g>
				<g>
					<path d="M477.5-1968.9H465v-62.5h-80.9v62.5h-12.4v-138.2h12.4v65.1H465v-65.1h12.4V-1968.9z"/>
					<path d="M569-1988.1l-5.4,11.2c-7.4,7.4-17.8,10.8-29.4,10.8c-19.6,0-33.6-10.2-33.6-29.4c0-24.2,23-36,61.3-36h6.8v-3.8
						c0-4.8,0-8.8-0.4-13c-1-12.2-8.4-19.2-23.6-19.2c-14.6,0-25,7.8-26.6,24.2h-13c1.4-20.8,17.2-34.2,39.7-34.2
						c23.4,0,34.4,10.6,36,28c0.4,4.6,0.4,9,0.4,14v37c0,9.4,0.6,17,2,29.6h-12.4L569-1988.1z M568.6-2022
						c-29.8-2.2-54.5,5-54.5,25.4c0,13.4,8.4,20.6,23.8,20.6c18.4,0,30.6-14,30.6-33.8V-2022z"/>
					<path d="M694.1-2001.9c-4.8,23.4-22.2,35.8-45.1,35.8c-26.4,0-47.1-18.2-47.1-55.7c0-35,22.6-55.9,49.3-55.9
						c24.4,0,40.7,15,43.9,37.4h-13c-3.6-17.8-14.2-27.6-31.2-27.6c-17.8,0-35.2,14.4-35.2,45.1c0,32.6,16.4,46.9,34.2,46.9
						c15.6,0,27.6-9,31.4-26L694.1-2001.9L694.1-2001.9z"/>
					<path d="M728.2-2006.1v37.2h-12.4v-147.2h12.4v96.1l54.3-54.9h16.2l-51.9,50.7l52.3,55.3h-17.2l-44.1-47.5L728.2-2006.1z"/>
					<path d="M940.5-2040.8v71.9h-24.8l-2.4-21.8l-6.2,14.8c-7.8,7.2-18,9.8-33,9.8c-37.7,0-62.7-26-62.7-71.1
						c0-46.5,31-72.7,68.9-72.7c37.9,0,58.9,20.4,61.7,47.5h-31.6c-3.2-15.6-13.8-24.2-30.4-24.2c-20,0-35.4,17-35.4,47.7
						c0,34.6,15.6,49.7,35.2,49.7c16.2,0,27.4-9.4,31-27h-28.2v-24.4L940.5-2040.8L940.5-2040.8z"/>
					<path d="M1027.2-2082.6v113.8h-31.2v-113.8h-46.1v-24.4h123.4v24.4H1027.2z"/>
				</g>
			</g>
		</g>
		<g id="Side_Extended">
			<g>
				<g>
					<polygon class="st2" points="-614.7,-1680.1 -563.4,-1709.7 -512.1,-1680.1 -512.1,-1620.8 -563.4,-1591.2 -614.7,-1620.8 
											"/>
					<polygon class="st2" points="-486.4,-1512.8 -435.1,-1542.4 -383.8,-1512.8 -383.8,-1453.6 -435.1,-1423.9 -486.4,-1453.6 
											"/>
				</g>
				<g>
					<circle class="st11" cx="-563.4" cy="-1650.4" r="9.9"/>
					<line class="st12" x1="-563.4" y1="-1640.5" x2="-563.4" y2="-1423.9"/>
					<circle class="st11" cx="-435.1" cy="-1483.2" r="9.9"/>
					<line class="st12" x1="-435.1" y1="-1709.7" x2="-435.1" y2="-1493.1"/>
				</g>
				<g>
					<polyline class="st13" points="-666,-1589 -666,-1707.5 -563.4,-1766.8 -460.7,-1707.5 -460.7,-1589 					"/>
					<line class="st13" x1="-666" y1="-1589" x2="-589" y2="-1544.6"/>
					<line class="st13" x1="-460.7" y1="-1589" x2="-537.7" y2="-1544.6"/>
					<polyline class="st13" points="-332.4,-1544.6 -332.4,-1426.1 -435.1,-1366.8 -537.7,-1426.1 -537.7,-1544.6 					"/>
					<line class="st13" x1="-409.4" y1="-1589" x2="-332.4" y2="-1544.6"/>
				</g>
				<g>
					<path d="M-16.9-1422.4h-24.8v-125h-161.8v125h-24.8v-276.4h24.8v130.2h161.8v-130.2h24.8C-16.9-1698.8-16.9-1422.4-16.9-1422.4
						z"/>
					<path d="M166.2-1460.9l-10.8,22.4c-14.8,14.8-35.7,21.6-58.9,21.6c-39.2,0-67.3-20.4-67.3-58.9c0-48.5,46.1-72.1,122.6-72.1
						h13.6v-7.6c0-9.6,0-17.6-0.8-26c-2-24.4-16.8-38.5-47.3-38.5c-29.2,0-50.1,15.6-53.3,48.5H38c2.8-41.7,34.4-68.5,79.3-68.5
						c46.9,0,68.9,21.2,72.1,56.1c0.8,9.2,0.8,18,0.8,28v74.1c0,18.8,1.2,34,4,59.3h-24.8L166.2-1460.9z M165.4-1528.6
						c-59.7-4.4-108.9,10-108.9,50.9c0,26.8,16.8,41.3,47.7,41.3c36.8,0,61.3-28,61.3-67.7V-1528.6z"/>
					<path d="M416.5-1488.5c-9.6,46.9-44.5,71.7-90.1,71.7c-52.9,0-94.1-36.4-94.1-111.3c0-70.1,45.3-111.7,98.5-111.7
						c48.9,0,81.3,30,87.7,74.9h-26c-7.2-35.6-28.4-55.3-62.5-55.3c-35.6,0-70.5,28.8-70.5,90.1c0,65.3,32.8,93.7,68.5,93.7
						c31.2,0,55.3-18,62.9-52.1H416.5z"/>
					<path d="M484.6-1496.9v74.5h-24.8v-294.4h24.8v192.3l108.5-109.7h32.4L521.8-1533l104.5,110.5h-34.4l-88.1-94.9L484.6-1496.9z"
						/>
					<path d="M909.1-1566.2v143.8h-49.7l-4.8-43.7l-12.4,29.6c-15.6,14.4-36,19.6-66.1,19.6c-75.3,0-125.4-52.1-125.4-142.2
						c0-92.9,62.1-145.4,137.8-145.4c75.7,0,117.8,40.9,123.4,94.9h-63.3c-6.4-31.2-27.6-48.5-60.9-48.5c-40.1,0-70.9,34-70.9,95.3
						c0,69.3,31.2,99.3,70.5,99.3c32.4,0,54.9-18.8,62.1-54.1H793v-48.9L909.1-1566.2L909.1-1566.2z"/>
					<path d="M1082.6-1649.9v227.5h-62.5v-227.5H928v-48.9h246.7v48.9H1082.6z"/>
				</g>
			</g>
		</g>
		<g id="Solos_1_">
			<g>
				<g>
					<polygon class="st2" points="-575.7,-1149.7 -524.4,-1179.3 -473,-1149.7 -473,-1090.5 -524.4,-1060.8 -575.7,-1090.5 					"/>
					<polygon class="st2" points="-447.4,-982.5 -396.1,-1012.1 -344.7,-982.5 -344.7,-923.2 -396.1,-893.6 -447.4,-923.2 					"/>
				</g>
				<g>
					<circle class="st11" cx="-524.4" cy="-1120.1" r="9.9"/>
					<line class="st12" x1="-524.4" y1="-1110.2" x2="-524.4" y2="-893.6"/>
					<circle class="st11" cx="-396.1" cy="-952.8" r="9.9"/>
					<line class="st12" x1="-396.1" y1="-1179.3" x2="-396.1" y2="-962.7"/>
				</g>
				<g>
					<polyline class="st13" points="-627,-1058.7 -627,-1177.2 -524.4,-1236.5 -421.7,-1177.2 -421.7,-1058.7 					"/>
					<line class="st13" x1="-627" y1="-1058.7" x2="-550" y2="-1014.2"/>
					<line class="st13" x1="-421.7" y1="-1058.7" x2="-498.7" y2="-1014.2"/>
					<polyline class="st13" points="-293.4,-1014.2 -293.4,-895.7 -396.1,-836.5 -498.7,-895.7 -498.7,-1014.2 					"/>
					<line class="st13" x1="-370.4" y1="-1058.7" x2="-293.4" y2="-1014.2"/>
				</g>
			</g>
			<g>
				<path d="M29.7-904.7H17.3v-62.5h-80.9v62.5H-76v-138.2h12.4v65.1h80.9v-65.1h12.4C29.7-1042.9,29.7-904.7,29.7-904.7z"/>
				<path d="M121.2-923.9l-5.4,11.2c-7.4,7.4-17.8,10.8-29.4,10.8c-19.6,0-33.6-10.2-33.6-29.4c0-24.2,23-36,61.3-36h6.8v-3.8
					c0-4.8,0-8.8-0.4-13c-1-12.2-8.4-19.2-23.6-19.2c-14.6,0-25,7.8-26.6,24.2h-13c1.4-20.8,17.2-34.2,39.7-34.2
					c23.4,0,34.4,10.6,36,28c0.4,4.6,0.4,9,0.4,14v37c0,9.4,0.6,17,2,29.6h-12.4L121.2-923.9z M120.8-957.8
					c-29.8-2.2-54.5,5-54.5,25.4c0,13.4,8.4,20.6,23.8,20.6c18.4,0,30.6-14,30.6-33.8V-957.8z"/>
				<path d="M246.4-937.7c-4.8,23.4-22.2,35.8-45.1,35.8c-26.4,0-47.1-18.2-47.1-55.7c0-35,22.6-55.9,49.3-55.9
					c24.4,0,40.7,15,43.9,37.5h-13c-3.6-17.8-14.2-27.6-31.2-27.6c-17.8,0-35.2,14.4-35.2,45.1c0,32.6,16.4,46.9,34.2,46.9
					c15.6,0,27.6-9,31.4-26H246.4z"/>
				<path d="M280.5-942v37.2H268v-147.2h12.4v96.1l54.3-54.9h16.2L299.1-960l52.3,55.3h-17.2l-44.1-47.5L280.5-942z"/>
				<path d="M492.7-976.6v71.9h-24.8l-2.4-21.8l-6.2,14.8c-7.8,7.2-18,9.8-33,9.8c-37.6,0-62.7-26-62.7-71.1
					c0-46.5,31-72.7,68.9-72.7c37.9,0,58.9,20.4,61.7,47.5h-31.6c-3.2-15.6-13.8-24.2-30.4-24.2c-20,0-35.4,17-35.4,47.7
					c0,34.6,15.6,49.7,35.2,49.7c16.2,0,27.4-9.4,31-27h-28.2v-24.4H492.7z"/>
				<path d="M579.4-1018.5v113.8h-31.2v-113.8h-46.1v-24.4h123.4v24.4H579.4z"/>
			</g>
		</g>
	</g>
</g>
<g id="Dark">
	<g id="Light_BG_copy">
		<rect x="-745.7" y="-2666.1" class="st14" width="2000" height="1879.6"/>
	</g>
	<g id="Logos">
		<g id="Side_Stacked_copy">
			<g>
				<g>
					<polygon class="st15" points="-601.2,-2514.7 -549.9,-2544.4 -498.6,-2514.7 -498.6,-2455.5 -549.9,-2425.8 -601.2,-2455.5 
											"/>
					<polygon class="st15" points="-472.9,-2347.5 -421.6,-2377.1 -370.3,-2347.5 -370.3,-2288.2 -421.6,-2258.6 -472.9,-2288.2 
											"/>
				</g>
				<g>
					<circle class="st16" cx="-549.9" cy="-2485.1" r="9.9"/>
					<line class="st17" x1="-549.9" y1="-2475.2" x2="-549.9" y2="-2258.6"/>
					<circle class="st16" cx="-421.6" cy="-2317.9" r="9.9"/>
					<line class="st17" x1="-421.6" y1="-2544.4" x2="-421.6" y2="-2327.7"/>
				</g>
				<g>
					<polyline class="st18" points="-652.6,-2423.7 -652.6,-2542.2 -549.9,-2601.5 -447.3,-2542.2 -447.3,-2423.7 					"/>
					<line class="st18" x1="-652.6" y1="-2423.7" x2="-575.6" y2="-2379.3"/>
					<line class="st18" x1="-447.3" y1="-2423.7" x2="-524.3" y2="-2379.3"/>
					<polyline class="st18" points="-319,-2379.3 -319,-2260.7 -421.6,-2201.5 -524.3,-2260.7 -524.3,-2379.3 					"/>
					<line class="st18" x1="-396" y1="-2423.7" x2="-319" y2="-2379.3"/>
				</g>
				<g>
					<g>
						<path class="st19" d="M-223.1-2416.4h-12.4v-62.5h-80.9v62.5h-12.4v-138.2h12.4v65.1h80.9v-65.1h12.4L-223.1-2416.4
							L-223.1-2416.4z"/>
						<path class="st19" d="M-131.6-2435.6l-5.4,11.2c-7.4,7.4-17.8,10.8-29.4,10.8c-19.6,0-33.6-10.2-33.6-29.4
							c0-24.2,23-36,61.3-36h6.8v-3.8c0-4.8,0-8.8-0.4-13c-1-12.2-8.4-19.2-23.6-19.2c-14.6,0-25,7.8-26.6,24.2h-13
							c1.4-20.8,17.2-34.2,39.7-34.2c23.4,0,34.4,10.6,36.1,28c0.4,4.6,0.4,9,0.4,14v37c0,9.4,0.6,17,2,29.6H-130L-131.6-2435.6z
							 M-132-2469.5c-29.8-2.2-54.5,5-54.5,25.4c0,13.4,8.4,20.6,23.8,20.6c18.4,0,30.6-14,30.6-33.8V-2469.5z"/>
						<path class="st19" d="M-6.4-2449.4c-4.8,23.4-22.2,35.8-45.1,35.8c-26.4,0-47.1-18.2-47.1-55.7c0-35,22.6-55.9,49.3-55.9
							c24.4,0,40.7,15,43.9,37.4h-13c-3.6-17.8-14.2-27.6-31.2-27.6c-17.8,0-35.2,14.4-35.2,45.1c0,32.6,16.4,46.9,34.2,46.9
							c15.6,0,27.6-9,31.4-26H-6.4z"/>
						<path class="st19" d="M27.6-2453.6v37.3H15.2v-147.2h12.4v96.1l54.3-54.9h16.2l-51.9,50.7l52.3,55.3H81.3l-44.1-47.5
							L27.6-2453.6z"/>
					</g>
					<g>
						<path class="st19" d="M-110.5-2317.3v75h-25.9l-2.5-22.8l-6.5,15.5c-8.1,7.5-18.8,10.2-34.5,10.2c-39.3,0-65.4-27.2-65.4-74.2
							c0-48.5,32.4-75.8,71.9-75.8c39.5,0,61.4,21.3,64.3,49.5h-33c-3.3-16.3-14.4-25.3-31.8-25.3c-20.9,0-37,17.8-37,49.7
							c0,36.1,16.3,51.8,36.8,51.8c16.9,0,28.6-9.8,32.4-28.2h-29.5v-25.5L-110.5-2317.3L-110.5-2317.3z"/>
						<path class="st19" d="M-20-2361v118.7h-32.6V-2361h-48.1v-25.5H28v25.5H-20z"/>
					</g>
				</g>
			</g>
		</g>
		<g id="Centered_copy">
			<g>
				<g>
					<polygon class="st15" points="607,-2479.3 658.3,-2509 709.6,-2479.3 709.6,-2420.1 658.3,-2390.4 607,-2420.1 					"/>
					<polygon class="st15" points="735.3,-2312.1 786.6,-2341.7 838,-2312.1 838,-2252.8 786.6,-2223.2 735.3,-2252.8 					"/>
				</g>
				<g>
					<circle class="st16" cx="658.3" cy="-2449.7" r="9.9"/>
					<line class="st17" x1="658.3" y1="-2439.8" x2="658.3" y2="-2223.2"/>
					<circle class="st16" cx="786.6" cy="-2282.5" r="9.9"/>
					<line class="st17" x1="786.6" y1="-2509" x2="786.6" y2="-2292.3"/>
				</g>
				<g>
					<polyline class="st18" points="555.7,-2388.3 555.7,-2506.8 658.3,-2566.1 761,-2506.8 761,-2388.3 					"/>
					<line class="st18" x1="555.7" y1="-2388.3" x2="632.7" y2="-2343.9"/>
					<line class="st18" x1="761" y1="-2388.3" x2="684" y2="-2343.9"/>
					<polyline class="st18" points="889.3,-2343.9 889.3,-2225.3 786.6,-2166.1 684,-2225.3 684,-2343.9 					"/>
					<line class="st18" x1="812.3" y1="-2388.3" x2="889.3" y2="-2343.9"/>
				</g>
				<g>
					<path class="st19" d="M477.5-1968.9H465v-62.5h-80.9v62.5h-12.4v-138.2h12.4v65.1H465v-65.1h12.4V-1968.9z"/>
					<path class="st19" d="M569-1988.1l-5.4,11.2c-7.4,7.4-17.8,10.8-29.4,10.8c-19.6,0-33.6-10.2-33.6-29.4c0-24.2,23-36,61.3-36
						h6.8v-3.8c0-4.8,0-8.8-0.4-13c-1-12.2-8.4-19.2-23.6-19.2c-14.6,0-25,7.8-26.6,24.2h-13c1.4-20.8,17.2-34.2,39.7-34.2
						c23.4,0,34.4,10.6,36,28c0.4,4.6,0.4,9,0.4,14v37c0,9.4,0.6,17,2,29.6h-12.4L569-1988.1z M568.6-2022
						c-29.8-2.2-54.5,5-54.5,25.4c0,13.4,8.4,20.6,23.8,20.6c18.4,0,30.6-14,30.6-33.8V-2022z"/>
					<path class="st19" d="M694.1-2001.9c-4.8,23.4-22.2,35.8-45.1,35.8c-26.4,0-47.1-18.2-47.1-55.7c0-35,22.6-55.9,49.3-55.9
						c24.4,0,40.7,15,43.9,37.4h-13c-3.6-17.8-14.2-27.6-31.2-27.6c-17.8,0-35.2,14.4-35.2,45.1c0,32.6,16.4,46.9,34.2,46.9
						c15.6,0,27.6-9,31.4-26L694.1-2001.9L694.1-2001.9z"/>
					<path class="st19" d="M728.2-2006.1v37.2h-12.4v-147.2h12.4v96.1l54.3-54.9h16.2l-51.9,50.7l52.3,55.3h-17.2l-44.1-47.5
						L728.2-2006.1z"/>
					<path class="st19" d="M940.5-2040.8v71.9h-24.8l-2.4-21.8l-6.2,14.8c-7.8,7.2-18,9.8-33,9.8c-37.7,0-62.7-26-62.7-71.1
						c0-46.5,31-72.7,68.9-72.7c37.9,0,58.9,20.4,61.7,47.5h-31.6c-3.2-15.6-13.8-24.2-30.4-24.2c-20,0-35.4,17-35.4,47.7
						c0,34.6,15.6,49.7,35.2,49.7c16.2,0,27.4-9.4,31-27h-28.2v-24.4L940.5-2040.8L940.5-2040.8z"/>
					<path class="st19" d="M1027.2-2082.6v113.8h-31.2v-113.8h-46.1v-24.4h123.4v24.4H1027.2z"/>
				</g>
			</g>
		</g>
		<g id="Side_Extended_copy">
			<g>
				<g>
					<polygon class="st15" points="-614.7,-1680.1 -563.4,-1709.7 -512.1,-1680.1 -512.1,-1620.8 -563.4,-1591.2 -614.7,-1620.8 
											"/>
					<polygon class="st15" points="-486.4,-1512.8 -435.1,-1542.4 -383.8,-1512.8 -383.8,-1453.6 -435.1,-1423.9 -486.4,-1453.6 
											"/>
				</g>
				<g>
					<circle class="st16" cx="-563.4" cy="-1650.4" r="9.9"/>
					<line class="st17" x1="-563.4" y1="-1640.5" x2="-563.4" y2="-1423.9"/>
					<circle class="st16" cx="-435.1" cy="-1483.2" r="9.9"/>
					<line class="st17" x1="-435.1" y1="-1709.7" x2="-435.1" y2="-1493.1"/>
				</g>
				<g>
					<polyline class="st18" points="-666,-1589 -666,-1707.5 -563.4,-1766.8 -460.7,-1707.5 -460.7,-1589 					"/>
					<line class="st18" x1="-666" y1="-1589" x2="-589" y2="-1544.6"/>
					<line class="st18" x1="-460.7" y1="-1589" x2="-537.7" y2="-1544.6"/>
					<polyline class="st18" points="-332.4,-1544.6 -332.4,-1426.1 -435.1,-1366.8 -537.7,-1426.1 -537.7,-1544.6 					"/>
					<line class="st18" x1="-409.4" y1="-1589" x2="-332.4" y2="-1544.6"/>
				</g>
				<g>
					<path class="st19" d="M-16.9-1422.4h-24.8v-125h-161.8v125h-24.8v-276.4h24.8v130.2h161.8v-130.2h24.8
						C-16.9-1698.8-16.9-1422.4-16.9-1422.4z"/>
					<path class="st19" d="M166.2-1460.9l-10.8,22.4c-14.8,14.8-35.7,21.6-58.9,21.6c-39.2,0-67.3-20.4-67.3-58.9
						c0-48.5,46.1-72.1,122.6-72.1h13.6v-7.6c0-9.6,0-17.6-0.8-26c-2-24.4-16.8-38.5-47.3-38.5c-29.2,0-50.1,15.6-53.3,48.5H38
						c2.8-41.7,34.4-68.5,79.3-68.5c46.9,0,68.9,21.2,72.1,56.1c0.8,9.2,0.8,18,0.8,28v74.1c0,18.8,1.2,34,4,59.3h-24.8
						L166.2-1460.9z M165.4-1528.6c-59.7-4.4-108.9,10-108.9,50.9c0,26.8,16.8,41.3,47.7,41.3c36.8,0,61.3-28,61.3-67.7V-1528.6z"/>
					<path class="st19" d="M416.5-1488.5c-9.6,46.9-44.5,71.7-90.1,71.7c-52.9,0-94.1-36.4-94.1-111.3c0-70.1,45.3-111.7,98.5-111.7
						c48.9,0,81.3,30,87.7,74.9h-26c-7.2-35.6-28.4-55.3-62.5-55.3c-35.6,0-70.5,28.8-70.5,90.1c0,65.3,32.8,93.7,68.5,93.7
						c31.2,0,55.3-18,62.9-52.1H416.5z"/>
					<path class="st19" d="M484.6-1496.9v74.5h-24.8v-294.4h24.8v192.3l108.5-109.7h32.4L521.8-1533l104.5,110.5h-34.4l-88.1-94.9
						L484.6-1496.9z"/>
					<path class="st19" d="M909.1-1566.2v143.8h-49.7l-4.8-43.7l-12.4,29.6c-15.6,14.4-36,19.6-66.1,19.6
						c-75.3,0-125.4-52.1-125.4-142.2c0-92.9,62.1-145.4,137.8-145.4c75.7,0,117.8,40.9,123.4,94.9h-63.3
						c-6.4-31.2-27.6-48.5-60.9-48.5c-40.1,0-70.9,34-70.9,95.3c0,69.3,31.2,99.3,70.5,99.3c32.4,0,54.9-18.8,62.1-54.1H793v-48.9
						L909.1-1566.2L909.1-1566.2z"/>
					<path class="st19" d="M1082.6-1649.9v227.5h-62.5v-227.5H928v-48.9h246.7v48.9H1082.6z"/>
				</g>
			</g>
		</g>
		<g id="Solos">
			<g>
				<g>
					<polygon class="st15" points="-575.7,-1149.7 -524.4,-1179.3 -473,-1149.7 -473,-1090.5 -524.4,-1060.8 -575.7,-1090.5 					
						"/>
					<polygon class="st15" points="-447.4,-982.5 -396.1,-1012.1 -344.7,-982.5 -344.7,-923.2 -396.1,-893.6 -447.4,-923.2 					"/>
				</g>
				<g>
					<circle class="st16" cx="-524.4" cy="-1120.1" r="9.9"/>
					<line class="st17" x1="-524.4" y1="-1110.2" x2="-524.4" y2="-893.6"/>
					<circle class="st16" cx="-396.1" cy="-952.8" r="9.9"/>
					<line class="st17" x1="-396.1" y1="-1179.3" x2="-396.1" y2="-962.7"/>
				</g>
				<g>
					<polyline class="st18" points="-627,-1058.7 -627,-1177.2 -524.4,-1236.5 -421.7,-1177.2 -421.7,-1058.7 					"/>
					<line class="st18" x1="-627" y1="-1058.7" x2="-550" y2="-1014.2"/>
					<line class="st18" x1="-421.7" y1="-1058.7" x2="-498.7" y2="-1014.2"/>
					<polyline class="st18" points="-293.4,-1014.2 -293.4,-895.7 -396.1,-836.5 -498.7,-895.7 -498.7,-1014.2 					"/>
					<line class="st18" x1="-370.4" y1="-1058.7" x2="-293.4" y2="-1014.2"/>
				</g>
			</g>
			<g>
				<path class="st19" d="M29.7-904.7H17.3v-62.5h-80.9v62.5H-76v-138.2h12.4v65.1h80.9v-65.1h12.4
					C29.7-1042.9,29.7-904.7,29.7-904.7z"/>
				<path class="st19" d="M121.2-923.9l-5.4,11.2c-7.4,7.4-17.8,10.8-29.4,10.8c-19.6,0-33.6-10.2-33.6-29.4c0-24.2,23-36,61.3-36
					h6.8v-3.8c0-4.8,0-8.8-0.4-13c-1-12.2-8.4-19.2-23.6-19.2c-14.6,0-25,7.8-26.6,24.2h-13c1.4-20.8,17.2-34.2,39.7-34.2
					c23.4,0,34.4,10.6,36,28c0.4,4.6,0.4,9,0.4,14v37c0,9.4,0.6,17,2,29.6h-12.4L121.2-923.9z M120.8-957.8
					c-29.8-2.2-54.5,5-54.5,25.4c0,13.4,8.4,20.6,23.8,20.6c18.4,0,30.6-14,30.6-33.8V-957.8z"/>
				<path class="st19" d="M246.4-937.7c-4.8,23.4-22.2,35.8-45.1,35.8c-26.4,0-47.1-18.2-47.1-55.7c0-35,22.6-55.9,49.3-55.9
					c24.4,0,40.7,15,43.9,37.5h-13c-3.6-17.8-14.2-27.6-31.2-27.6c-17.8,0-35.2,14.4-35.2,45.1c0,32.6,16.4,46.9,34.2,46.9
					c15.6,0,27.6-9,31.4-26H246.4z"/>
				<path class="st19" d="M280.5-942v37.2H268v-147.2h12.4v96.1l54.3-54.9h16.2L299.1-960l52.3,55.3h-17.2l-44.1-47.5L280.5-942z"/>
				<path class="st19" d="M492.7-976.6v71.9h-24.8l-2.4-21.8l-6.2,14.8c-7.8,7.2-18,9.8-33,9.8c-37.6,0-62.7-26-62.7-71.1
					c0-46.5,31-72.7,68.9-72.7c37.9,0,58.9,20.4,61.7,47.5h-31.6c-3.2-15.6-13.8-24.2-30.4-24.2c-20,0-35.4,17-35.4,47.7
					c0,34.6,15.6,49.7,35.2,49.7c16.2,0,27.4-9.4,31-27h-28.2v-24.4H492.7z"/>
				<path class="st19" d="M579.4-1018.5v113.8h-31.2v-113.8h-46.1v-24.4h123.4v24.4H579.4z"/>
			</g>
		</g>
	</g>
</g>
<g id="Final_Dark">
	<g>
		<polygon class="st15" points="-770.1,-670.5 -708.7,-706 -647.3,-670.5 -647.3,-599.6 -708.7,-564.1 -770.1,-599.6 		"/>
		<polygon class="st15" points="-616.5,-470.3 -555.1,-505.8 -493.7,-470.3 -493.7,-399.4 -555.1,-363.9 -616.5,-399.4 		"/>
	</g>
	<g>
		<circle class="st16" cx="-708.7" cy="-635" r="11.8"/>
		<line class="st17" x1="-708.7" y1="-623.2" x2="-708.7" y2="-363.9"/>
		<circle class="st16" cx="-555.1" cy="-434.9" r="11.8"/>
		<line class="st17" x1="-555.1" y1="-706" x2="-555.1" y2="-446.7"/>
	</g>
	<g>
		<polyline class="st18" points="-831.5,-561.5 -831.5,-703.4 -708.7,-774.3 -585.8,-703.4 -585.8,-561.5 		"/>
		<line class="st18" x1="-831.5" y1="-561.5" x2="-739.4" y2="-508.3"/>
		<line class="st18" x1="-585.8" y1="-561.5" x2="-678" y2="-508.3"/>
		<polyline class="st18" points="-432.3,-508.3 -432.3,-366.5 -555.1,-295.6 -678,-366.5 -678,-508.3 		"/>
		<line class="st18" x1="-524.4" y1="-561.5" x2="-432.3" y2="-508.3"/>
	</g>
	<g>
		<path class="st2" d="M-272.7-447.7V-527h-89v79.3h-10.8v-174.6h10.8v83h89v-83h10.8v174.6H-272.7z"/>
		<path class="st2" d="M-234-447.7h-7.6l43.8-96.7h8.5l44,96.7h-8.5l-14.3-32.5h-40.7l2.8-6.1h35.2l-23.2-52.6L-234-447.7z"/>
		<path class="st2" d="M-57.8-451.1c-8.8,2.7-17.8,4.1-27.1,4.1c-33.8,0-50.7-16.8-50.7-50.4c0-31.8,16.9-47.7,50.7-47.7
			c9.2,0,18.3,1.4,27.1,4.1v6.1c-8.8-2.7-17.4-4.1-25.7-4.1c-30,0-45,13.9-45,41.6c0,29.5,15,44.3,45,44.3c8.3,0,16.9-1.4,25.7-4.1
			C-57.8-457.1-57.8-451.1-57.8-451.1z"/>
		<path class="st2" d="M-30-544.4v96.7h-7.1v-96.7L-30-544.4L-30-544.4z M36.3-544.4l-46.1,45.8l47.7,50.9H27.3l-44.2-48.6v-4.2
			l43.4-44L36.3-544.4L36.3-544.4z"/>
		<path class="st2" d="M211.8-548.7c1.2,0,2.2,1,2.2,2v97.8c0,1-1,2-2.2,2h-24.9c-1.2,0-2.5-0.7-2.5-1.7l-1-16.2
			c-12,13.7-27.2,19.7-46.6,19.7c-47.1,0-84-32.7-84-89.8c0-51.9,39.4-89.8,87.8-89.8c24.4,0,46.4,9.7,61.8,25.7c1,0.7,1,2.2,0,3
			l-19.9,20c-1,0.7-2.5,0.7-3.2,0c-10-10-23.7-16.2-38.7-16.2c-29.9,0-54.4,21.2-54.4,57.4c0,40.1,24.4,57.4,54.4,57.4
			c16,0,29.9-7,40.1-18.2v-22.7h-28.2c-1.5,0-2.5-0.7-2.5-1.7v-26.4c0-1,1-2,2.5-2L211.8-548.7L211.8-548.7z"/>
		<path class="st2" d="M277.6-592.3h-55.4v-29.9c50.4,0,93,0,143.6,0v29.9h-55.4v144.6h-32.9V-592.3z"/>
	</g>
	<g>
		<polygon class="st15" points="-785,166.2 -723.6,130.8 -662.1,166.2 -662.1,237.2 -723.6,272.6 -785,237.2 		"/>
		<polygon class="st15" points="-631.4,366.4 -570,330.9 -508.6,366.4 -508.6,437.3 -570,472.8 -631.4,437.3 		"/>
	</g>
	<g>
		<circle class="st16" cx="-723.6" cy="201.7" r="11.8"/>
		<line class="st17" x1="-723.6" y1="213.5" x2="-723.6" y2="472.8"/>
		<circle class="st16" cx="-570" cy="401.9" r="11.8"/>
		<line class="st17" x1="-570" y1="130.8" x2="-570" y2="390.1"/>
	</g>
	<g>
		<polyline class="st18" points="-846.4,275.2 -846.4,133.3 -723.6,62.4 -600.7,133.3 -600.7,275.2 		"/>
		<line class="st18" x1="-846.4" y1="275.2" x2="-754.3" y2="328.4"/>
		<line class="st18" x1="-600.7" y1="275.2" x2="-692.9" y2="328.4"/>
		<polyline class="st18" points="-447.2,328.4 -447.2,470.2 -570,541.2 -692.9,470.2 -692.9,328.4 		"/>
		<line class="st18" x1="-539.3" y1="275.2" x2="-447.2" y2="328.4"/>
	</g>
	<g>
		<path class="st2" d="M-916.2,778.1v-79.3h-89v79.3h-10.8V603.5h10.8v83h89v-83h10.8v174.6H-916.2z"/>
		<path class="st2" d="M-877.5,778.1h-7.6l43.8-96.7h8.5l44,96.7h-8.5l-14.3-32.5h-40.7l2.8-6.1h35.2l-23.2-52.6L-877.5,778.1z"/>
		<path class="st2" d="M-701.3,774.7c-8.8,2.7-17.8,4.1-27.1,4.1c-33.8,0-50.7-16.8-50.7-50.4c0-31.8,16.9-47.7,50.7-47.7
			c9.2,0,18.3,1.4,27.1,4.1v6.1c-8.8-2.7-17.4-4.1-25.7-4.1c-30,0-45,13.9-45,41.6c0,29.5,15,44.3,45,44.3c8.3,0,16.9-1.4,25.7-4.1
			V774.7z"/>
		<path class="st2" d="M-673.6,681.3v96.7h-7.1v-96.7H-673.6z M-607.2,681.3l-46.1,45.8l47.7,50.9h-10.6l-44.2-48.6v-4.2l43.4-44
			L-607.2,681.3L-607.2,681.3z"/>
		<path class="st2" d="M-431.7,677.1c1.2,0,2.2,1,2.2,2v97.8c0,1-1,2-2.2,2h-24.9c-1.2,0-2.5-0.7-2.5-1.7l-1-16.2
			c-12,13.7-27.2,19.7-46.6,19.7c-47.1,0-84-32.7-84-89.8c0-51.9,39.4-89.8,87.8-89.8c24.4,0,46.4,9.7,61.8,25.7c1,0.7,1,2.2,0,3
			l-19.9,20c-1,0.7-2.5,0.7-3.2,0c-10-10-23.7-16.2-38.7-16.2c-29.9,0-54.4,21.2-54.4,57.4c0,40.1,24.4,57.4,54.4,57.4
			c16,0,29.9-7,40.1-18.2v-22.7h-28.2c-1.5,0-2.5-0.7-2.5-1.7v-26.4c0-1,1-2,2.5-2L-431.7,677.1L-431.7,677.1z"/>
		<path class="st2" d="M-365.9,633.4h-55.4v-29.9c50.4,0,93,0,143.6,0v29.9H-333v144.6h-32.9V633.4z"/>
	</g>
	<g>
		<polygon class="st15" points="111.3,116.2 172.7,80.8 234.2,116.2 234.2,187.2 172.7,222.6 111.3,187.2 		"/>
		<polygon class="st15" points="264.9,316.4 326.3,281 387.7,316.4 387.7,387.4 326.3,422.8 264.9,387.4 		"/>
	</g>
	<g>
		<circle class="st16" cx="172.7" cy="151.7" r="11.8"/>
		<line class="st17" x1="172.7" y1="163.5" x2="172.7" y2="422.8"/>
		<circle class="st16" cx="326.3" cy="351.9" r="11.8"/>
		<line class="st17" x1="326.3" y1="80.8" x2="326.3" y2="340.1"/>
	</g>
	<g>
		<polyline class="st18" points="49.9,225.2 49.9,83.3 172.7,12.4 295.6,83.3 295.6,225.2 		"/>
		<line class="st18" x1="49.9" y1="225.2" x2="142" y2="278.4"/>
		<line class="st18" x1="295.6" y1="225.2" x2="203.5" y2="278.4"/>
		<polyline class="st18" points="449.2,278.4 449.2,420.3 326.3,491.2 203.5,420.3 203.5,278.4 		"/>
		<line class="st18" x1="357" y1="225.2" x2="449.2" y2="278.4"/>
	</g>
	<g>
		<path class="st2" d="M181.2,891.7v-79.3h-89v79.3H81.4V717.2h10.8v83h89v-83H192v174.6H181.2z"/>
		<path class="st2" d="M219.9,891.7h-7.6l43.8-96.7h8.5l44,96.7H300l-14.3-32.5H245l2.8-6.1H283l-23.2-52.6L219.9,891.7z"/>
		<path class="st2" d="M396.1,888.3c-8.8,2.7-17.8,4.1-27.1,4.1c-33.8,0-50.7-16.8-50.7-50.4c0-31.8,16.9-47.7,50.7-47.7
			c9.2,0,18.3,1.4,27.1,4.1v6.1c-8.8-2.7-17.4-4.1-25.7-4.1c-30,0-45,13.9-45,41.6c0,29.5,15,44.3,45,44.3c8.3,0,16.9-1.4,25.7-4.1
			V888.3z"/>
		<path class="st2" d="M423.8,795v96.7h-7.1V795H423.8z M490.2,795l-46.1,45.8l47.7,50.9h-10.6L437,843.1v-4.2l43.4-44L490.2,795
			L490.2,795z"/>
		<path class="st2" d="M665.6,790.7c1.2,0,2.2,1,2.2,2v97.8c0,1-1,2-2.2,2h-24.9c-1.2,0-2.5-0.7-2.5-1.7l-1-16.2
			c-12,13.7-27.2,19.7-46.6,19.7c-47.1,0-84-32.7-84-89.8c0-51.9,39.4-89.8,87.8-89.8c24.4,0,46.4,9.7,61.8,25.7c1,0.7,1,2.2,0,3
			l-19.9,20c-1,0.7-2.5,0.7-3.2,0c-10-10-23.7-16.2-38.7-16.2c-29.9,0-54.4,21.2-54.4,57.4c0,40.1,24.4,57.4,54.4,57.4
			c16,0,29.9-7,40.1-18.2v-22.7h-28.2c-1.5,0-2.5-0.7-2.5-1.7v-26.4c0-1,1-2,2.5-2L665.6,790.7L665.6,790.7z"/>
		<path class="st2" d="M731.5,747.1h-55.4v-29.9c50.4,0,93,0,143.6,0v29.9h-55.4v144.6h-32.9V747.1z"/>
	</g>
</g>
<g id="Mitt_Romney" class="st0">
	<g id="Light_BG_copy_2" class="st1">
		<rect x="-745.7" y="-2666.1" class="st14" width="2000" height="1879.6"/>
	</g>
	<g class="st1">
		<g>
			<polygon class="st20" points="607,-2479.3 658.3,-2509 709.6,-2479.3 709.6,-2420.1 658.3,-2390.4 607,-2420.1 			"/>
			<polygon class="st20" points="735.3,-2312.1 786.6,-2341.7 838,-2312.1 838,-2252.8 786.6,-2223.2 735.3,-2252.8 			"/>
		</g>
		<g>
			<circle class="st21" cx="658.3" cy="-2449.7" r="9.9"/>
			<line class="st22" x1="658.3" y1="-2439.8" x2="658.3" y2="-2223.2"/>
			<circle class="st21" cx="786.6" cy="-2282.5" r="9.9"/>
			<line class="st22" x1="786.6" y1="-2509" x2="786.6" y2="-2292.3"/>
		</g>
		<g>
			<polyline class="st23" points="555.7,-2388.3 555.7,-2506.8 658.3,-2566.1 761,-2506.8 761,-2388.3 			"/>
			<line class="st23" x1="555.7" y1="-2388.3" x2="632.7" y2="-2343.9"/>
			<line class="st23" x1="761" y1="-2388.3" x2="684" y2="-2343.9"/>
			<polyline class="st23" points="889.3,-2343.9 889.3,-2225.3 786.6,-2166.1 684,-2225.3 684,-2343.9 			"/>
			<line class="st23" x1="812.3" y1="-2388.3" x2="889.3" y2="-2343.9"/>
		</g>
		<g>
			<path class="st24" d="M477.5-1968.9H465v-62.5h-80.9v62.5h-12.4v-138.2h12.4v65.1H465v-65.1h12.4V-1968.9z"/>
			<path class="st24" d="M569-1988.1l-5.4,11.2c-7.4,7.4-17.8,10.8-29.4,10.8c-19.6,0-33.6-10.2-33.6-29.4c0-24.2,23-36,61.3-36h6.8
				v-3.8c0-4.8,0-8.8-0.4-13c-1-12.2-8.4-19.2-23.6-19.2c-14.6,0-25,7.8-26.6,24.2h-13c1.4-20.8,17.2-34.2,39.7-34.2
				c23.4,0,34.4,10.6,36,28c0.4,4.6,0.4,9,0.4,14v37c0,9.4,0.6,17,2,29.6h-12.4L569-1988.1z M568.6-2022c-29.8-2.2-54.5,5-54.5,25.4
				c0,13.4,8.4,20.6,23.8,20.6c18.4,0,30.6-14,30.6-33.8V-2022z"/>
			<path class="st24" d="M694.1-2001.9c-4.8,23.4-22.2,35.8-45.1,35.8c-26.4,0-47.1-18.2-47.1-55.7c0-35,22.6-55.9,49.3-55.9
				c24.4,0,40.7,15,43.9,37.4h-13c-3.6-17.8-14.2-27.6-31.2-27.6c-17.8,0-35.2,14.4-35.2,45.1c0,32.6,16.4,46.9,34.2,46.9
				c15.6,0,27.6-9,31.4-26L694.1-2001.9L694.1-2001.9z"/>
			<path class="st24" d="M728.2-2006.1v37.2h-12.4v-147.2h12.4v96.1l54.3-54.9h16.2l-51.9,50.7l52.3,55.3h-17.2l-44.1-47.5
				L728.2-2006.1z"/>
			<path class="st24" d="M940.5-2040.8v71.9h-24.8l-2.4-21.8l-6.2,14.8c-7.8,7.2-18,9.8-33,9.8c-37.7,0-62.7-26-62.7-71.1
				c0-46.5,31-72.7,68.9-72.7c37.9,0,58.9,20.4,61.7,47.5h-31.6c-3.2-15.6-13.8-24.2-30.4-24.2c-20,0-35.4,17-35.4,47.7
				c0,34.6,15.6,49.7,35.2,49.7c16.2,0,27.4-9.4,31-27h-28.2v-24.4L940.5-2040.8L940.5-2040.8z"/>
			<path class="st24" d="M1027.2-2082.6v113.8h-31.2v-113.8h-46.1v-24.4h123.4v24.4H1027.2z"/>
		</g>
	</g>
	<g class="st1">
		<g>
			<polygon class="st20" points="-575.7,-1149.7 -524.4,-1179.3 -473,-1149.7 -473,-1090.5 -524.4,-1060.8 -575.7,-1090.5 			"/>
			<polygon class="st20" points="-447.4,-982.5 -396.1,-1012.1 -344.7,-982.5 -344.7,-923.2 -396.1,-893.6 -447.4,-923.2 			"/>
		</g>
		<g>
			<circle class="st21" cx="-524.4" cy="-1120.1" r="9.9"/>
			<line class="st22" x1="-524.4" y1="-1110.2" x2="-524.4" y2="-893.6"/>
			<circle class="st21" cx="-396.1" cy="-952.8" r="9.9"/>
			<line class="st22" x1="-396.1" y1="-1179.3" x2="-396.1" y2="-962.7"/>
		</g>
		<g>
			<polyline class="st23" points="-627,-1058.7 -627,-1177.2 -524.4,-1236.5 -421.7,-1177.2 -421.7,-1058.7 			"/>
			<line class="st23" x1="-627" y1="-1058.7" x2="-550" y2="-1014.2"/>
			<line class="st23" x1="-421.7" y1="-1058.7" x2="-498.7" y2="-1014.2"/>
			<polyline class="st23" points="-293.4,-1014.2 -293.4,-895.7 -396.1,-836.5 -498.7,-895.7 -498.7,-1014.2 			"/>
			<line class="st23" x1="-370.4" y1="-1058.7" x2="-293.4" y2="-1014.2"/>
		</g>
	</g>
</g>
</svg>
